<svg width="45" height="45" viewBox="0 0 48 51" fill="#f2f2f2"  xmlns="http://www.w3.org/2000/svg">
<path  d="M30.1031 30.2275L29.6065 30.7526L30.1129 31.2683L46.9497 48.4125L45.4661 49.9285L28.441 32.5848L27.9961 32.1316L27.4757 32.4958C23.8685 35.0204 19.4492 36.0353 15.1307 35.3336C10.8121 34.6319 6.91964 32.2661 4.26004 28.7204C1.60013 25.1744 0.377907 20.7204 0.84899 16.2794C1.32006 11.8385 3.44776 7.7548 6.78795 4.87114C10.1277 1.98787 14.4246 0.524041 18.7903 0.778357C23.1561 1.03268 27.2621 2.98619 30.2583 6.23953C33.255 9.4933 34.912 13.7983 34.8831 18.2652C34.8542 22.7321 33.1416 27.0144 30.1031 30.2275ZM2.96378 18.1558L2.96378 18.1566C2.96809 22.1817 4.53938 26.0435 7.33733 28.8938C10.1357 31.7446 13.9329 33.3506 17.8966 33.355H17.8974C20.8541 33.355 23.7433 32.4619 26.1994 30.79C28.6554 29.1182 30.5676 26.7436 31.6962 23.9679C32.8247 21.1923 33.1198 18.1389 32.5447 15.1933C31.9695 12.2475 30.5494 9.53989 28.462 7.41338C26.3744 5.28672 23.713 3.83688 20.8135 3.24933C17.9139 2.66177 14.9085 2.96329 12.178 4.11548C9.44769 5.2676 7.11629 7.21779 5.47704 9.71703C3.83788 12.2161 2.96378 15.1527 2.96378 18.1558Z"  stroke="#333333" stroke-width="1.5"/>
</svg>
