<svg width="45" height="45" viewBox="0 0 41 42" fill="none" xmlns="http://www.w3.org/2000/svg">
<path d="M40.7201 38H0.0573309L0.00142942 37.1394C0.00489966 37.1081 0.00489966 37.0766 0.00142942 37.0453C0.00142942 36.9714 0.00142942 36.8839 0.00142942 36.783V36.1107C0.00142942 35.546 0.00142942 34.961 0.00142942 34.3693C-0.0196682 33.55 0.193126 32.7408 0.616687 32.0296C0.858769 31.662 1.13991 31.3195 1.45564 31.0077L2.85394 29.663C3.55309 28.9907 4.2103 28.3655 4.8675 27.7066C5.31445 27.225 5.63771 26.6493 5.81134 26.0258V16.2501C6.05828 12.7987 7.61009 9.55359 10.174 7.12674C10.3768 6.9116 10.6215 6.66284 10.8732 6.45442C11.3127 6.07117 11.78 5.71838 12.2715 5.39882C12.7758 5.04607 13.3063 4.72913 13.8586 4.45073C14.3957 4.1933 14.9491 3.96875 15.5156 3.7784L15.7044 3.71799C15.9421 3.63059 16.1798 3.56331 16.4035 3.49607C16.4769 2.9248 16.6796 2.37599 16.9973 1.88813C17.315 1.40028 17.7399 0.985261 18.2423 0.672328C18.808 0.25152 19.4989 0.0159119 20.2139 0H20.6753C21.2926 0.00292589 21.8981 0.162947 22.4302 0.463867L22.5491 0.537895C23.0917 0.844747 23.5536 1.26743 23.8991 1.7734C24.2446 2.27936 24.4645 2.85495 24.5417 3.45569C25.3391 3.70484 26.1171 4.00822 26.8698 4.3634C27.7153 4.75559 28.5106 5.24059 29.24 5.80884C30.9557 7.02526 32.3754 8.58637 33.4005 10.3837C34.4255 12.181 35.0313 14.1713 35.1758 16.2165V16.2568C35.1758 16.6401 35.1758 17.5208 35.1758 17.7561V25.972C35.2919 26.3961 35.4862 26.7969 35.7491 27.1553C36.1362 27.6534 36.564 28.1211 37.0285 28.5538L37.1334 28.6613C37.5529 29.0848 38.0003 29.5018 38.4268 29.9119L39.6084 31.0481C40.0109 31.3958 40.3365 31.8179 40.5659 32.2892C40.7954 32.7604 40.9239 33.2712 40.9438 33.7912C40.9438 34.5106 40.9438 35.2502 40.9998 35.9696C40.9998 36.3124 40.9998 36.6419 40.9998 36.9982C41.004 37.1851 40.953 37.3693 40.8529 37.5294L40.7201 38ZM1.87511 36.1713H39.2029C39.2064 36.1176 39.2064 36.0637 39.2029 36.0099C39.2029 35.2838 39.154 34.5308 39.154 33.7845C39.1304 33.4993 39.0478 33.2214 38.9109 32.9674C38.774 32.7134 38.5857 32.4884 38.3569 32.3054L37.1963 31.196C36.7628 30.7791 36.3154 30.3556 35.8749 29.9186L35.77 29.8111C35.2399 29.3131 34.7513 28.7758 34.3088 28.2041C33.8791 27.6267 33.5726 26.9733 33.4069 26.2814V26.1804V17.6957C33.4069 17.5882 33.4069 16.9091 33.4069 16.304C33.2744 14.5243 32.7428 12.7933 31.8485 11.23C30.9542 9.66666 29.7185 8.30809 28.2262 7.24772C27.6049 6.76659 26.9295 6.35385 26.2127 6.0173C25.4871 5.67698 24.737 5.38711 23.9683 5.14997L23.8495 5.11633C23.6814 5.0747 23.5175 5.01844 23.3601 4.94824L22.7938 4.67938L22.8357 4.07435V3.94648C22.8356 3.57416 22.7335 3.20852 22.5395 2.88628C22.3456 2.56404 22.0667 2.29661 21.7311 2.11104L21.6752 2.07755L21.5773 2.01698C21.3305 1.88258 21.0496 1.81735 20.7662 1.82871H20.3887C20.0672 1.83258 19.7558 1.93632 19.5008 2.1245H19.4518C19.1393 2.31629 18.882 2.58064 18.7036 2.89318C18.5252 3.20571 18.4315 3.55648 18.4311 3.913C18.428 3.96226 18.428 4.01163 18.4311 4.06089L18.48 4.73322L17.8298 4.97516C17.7762 4.99907 17.7199 5.01717 17.662 5.029L17.3125 5.12979C17.0188 5.21046 16.7531 5.28449 16.4944 5.3719L16.3056 5.43919C15.8116 5.59601 15.3283 5.78228 14.8584 5.99711C14.3866 6.23914 13.9333 6.51323 13.502 6.81734C13.0829 7.08406 12.6834 7.37839 12.3065 7.69812C12.0828 7.90655 11.859 8.13509 11.6772 8.32334V8.36372C9.43721 10.4665 8.07871 13.2875 7.8599 16.2905V26.2746L7.81791 26.4023C7.56282 27.3492 7.07082 28.2217 6.3847 28.9438C5.68554 29.6161 4.98635 30.2884 4.33614 30.9607C3.86771 31.4045 3.39229 31.8549 2.93784 32.3054C2.71311 32.5212 2.51383 32.7601 2.34357 33.0179C2.11091 33.4632 2.00245 33.9591 2.0289 34.4568C2.0289 34.9947 2.0289 35.5392 2.0289 36.104L1.87511 36.1713Z" fill="white"/>
<mask id="path-2-inside-1_108_3" fill="white">
<path d="M27 37.5C27 38.6935 26.2625 39.8381 24.9497 40.682C23.637 41.5259 21.8565 42 20 42C18.1435 42 16.363 41.5259 15.0503 40.682C13.7375 39.8381 13 38.6935 13 37.5L20 37.5H27Z"/>
</mask>
<path d="M27 37.5C27 38.6935 26.2625 39.8381 24.9497 40.682C23.637 41.5259 21.8565 42 20 42C18.1435 42 16.363 41.5259 15.0503 40.682C13.7375 39.8381 13 38.6935 13 37.5L20 37.5H27Z" stroke="white" stroke-width="5" mask="url(#path-2-inside-1_108_3)"/>
</svg>
