<svg width="30" height="32" viewBox="0 0 30 32" fill="none" xmlns="http://www.w3.org/2000/svg">
<path d="M29.7952 27.63H0.0419494L0.00104591 27.0043C0.00358511 26.9815 0.00358511 26.9586 0.00104591 26.9359C0.00104591 26.8821 0.00104591 26.8185 0.00104591 26.7452V26.2563C0.00104591 25.8457 0.00104591 25.4203 0.00104591 24.9901C-0.0143913 24.3944 0.141312 23.806 0.451235 23.2889C0.628368 23.0216 0.834078 22.7726 1.0651 22.5459L2.08825 21.5682C2.59983 21.0793 3.08071 20.6247 3.56159 20.1456C3.88862 19.7955 4.12515 19.3769 4.2522 18.9235V11.8156C4.43289 9.306 5.56836 6.94647 7.44443 5.1819C7.59278 5.02546 7.77183 4.84459 7.956 4.69304C8.2776 4.41438 8.61951 4.15787 8.97915 3.92551C9.34816 3.66903 9.73629 3.43857 10.1404 3.23615C10.5334 3.04898 10.9384 2.8857 11.3529 2.7473L11.491 2.70337C11.6649 2.63982 11.8389 2.5909 12.0026 2.54201C12.0563 2.12664 12.2046 1.7276 12.437 1.37287C12.6695 1.01815 12.9804 0.716389 13.348 0.488854C13.7619 0.182881 14.2675 0.0115696 14.7906 0H15.1283C15.58 0.00212743 16.023 0.118479 16.4124 0.33728L16.4993 0.391107C16.8964 0.61422 17.2343 0.921555 17.4871 1.28945C17.74 1.65734 17.9008 2.07585 17.9573 2.51266C18.5408 2.69381 19.1101 2.9144 19.6608 3.17266C20.2795 3.45781 20.8614 3.81046 21.3951 4.22364C22.6505 5.10811 23.6893 6.2432 24.4394 7.55002C25.1894 8.85684 25.6327 10.304 25.7384 11.7911V11.8204C25.7384 12.0991 25.7384 12.7395 25.7384 12.9106V18.8844C25.8234 19.1928 25.9655 19.4842 26.1579 19.7447C26.4411 20.107 26.7541 20.447 27.094 20.7616L27.1708 20.8398C27.4777 21.1477 27.8051 21.4509 28.1172 21.7491L28.9817 22.5752C29.2762 22.8281 29.5145 23.135 29.6824 23.4776C29.8503 23.8203 29.9443 24.1917 29.9589 24.5698C29.9589 25.0929 29.9589 25.6306 29.9998 26.1537C29.9998 26.403 29.9998 26.6425 29.9998 26.9016C30.0029 27.0375 29.9656 27.1714 29.8923 27.2878L29.7952 27.63ZM1.37203 26.3003H28.685C28.6876 26.2613 28.6876 26.2221 28.685 26.183C28.685 25.6551 28.6493 25.1075 28.6493 24.5649C28.632 24.3575 28.5716 24.1555 28.4714 23.9708C28.3712 23.7861 28.2334 23.6225 28.066 23.4894L27.2168 22.6828C26.8996 22.3797 26.5722 22.0717 26.2499 21.754L26.1732 21.6758C25.7853 21.3138 25.4278 20.923 25.104 20.5074C24.7896 20.0875 24.5653 19.6124 24.4441 19.1093V19.0359V12.8667C24.4441 12.7884 24.4441 12.2947 24.4441 11.8547C24.3471 10.5607 23.9581 9.30208 23.3038 8.16538C22.6494 7.02869 21.7452 6.04086 20.6533 5.26986C20.1987 4.92003 19.7045 4.61992 19.18 4.37522C18.6491 4.12777 18.1003 3.917 17.5378 3.74458L17.4509 3.72011C17.3279 3.68984 17.208 3.64894 17.0927 3.5979L16.6784 3.4024L16.709 2.96248V2.86951C16.709 2.59879 16.6343 2.33294 16.4923 2.09863C16.3504 1.86433 16.1464 1.66988 15.9008 1.53495L15.8599 1.5106L15.7882 1.46656C15.6077 1.36884 15.4021 1.3214 15.1948 1.32967H14.9185C14.6833 1.33248 14.4555 1.40791 14.2689 1.54473H14.233C14.0044 1.68419 13.8161 1.8764 13.6856 2.10365C13.555 2.33089 13.4865 2.58594 13.4862 2.84516C13.4839 2.88098 13.4839 2.91688 13.4862 2.95269L13.5219 3.44155L13.0462 3.61747C13.0069 3.63486 12.9658 3.64801 12.9234 3.65662L12.6677 3.7299C12.4528 3.78856 12.2584 3.84238 12.0691 3.90594L11.9309 3.95487C11.5695 4.06889 11.2158 4.20433 10.872 4.36054C10.5268 4.53651 10.1951 4.73581 9.87953 4.95692C9.57283 5.15086 9.28055 5.36487 9.00476 5.59735C8.84105 5.74889 8.67733 5.91507 8.54433 6.05195V6.08131C6.90527 7.61029 5.91125 9.66145 5.75115 11.8449V19.1044L5.72042 19.1973C5.53377 19.8858 5.17377 20.5202 4.67173 21.0452C4.16015 21.534 3.64855 22.0229 3.17279 22.5117C2.83003 22.8344 2.48216 23.1619 2.14964 23.4894C1.9852 23.6464 1.83939 23.8201 1.71481 24.0075C1.54457 24.3313 1.46521 24.6919 1.48456 25.0537C1.48456 25.4448 1.48456 25.8408 1.48456 26.2514L1.37203 26.3003Z" fill="white"/>
<mask id="path-2-inside-1_9823_454" fill="white">
<path d="M20.116 27.4254C20.116 28.3851 19.5609 29.3055 18.573 29.9842C17.585 30.6628 16.245 31.0441 14.8478 31.0441C13.4506 31.0441 12.1106 30.6628 11.1226 29.9842C10.1346 29.3055 9.57959 28.3851 9.57959 27.4254L14.8478 27.4254H20.116Z"/>
</mask>
<path d="M20.116 27.4254C20.116 28.3851 19.5609 29.3055 18.573 29.9842C17.585 30.6628 16.245 31.0441 14.8478 31.0441C13.4506 31.0441 12.1106 30.6628 11.1226 29.9842C10.1346 29.3055 9.57959 28.3851 9.57959 27.4254L14.8478 27.4254H20.116Z" stroke="white" stroke-width="5" mask="url(#path-2-inside-1_9823_454)"/>
</svg>
