<svg width="30" height="32" viewBox="0 0 30 32" fill="none" xmlns="http://www.w3.org/2000/svg">
<path d="M18.6098 18.7233L18.1141 19.2481L18.6196 19.7635L28.9504 30.296L28.416 30.8427L17.9767 20.1947L17.5315 19.7406L17.0107 20.1056C14.8159 21.6437 12.128 22.2614 9.50197 21.8342C6.87576 21.4069 4.50708 19.9662 2.88778 17.8047C1.26815 15.6428 0.523272 12.9262 0.81031 10.2169C1.09734 7.5076 2.39364 5.01773 4.42661 3.26042C6.45911 1.50352 9.0729 0.612433 11.7275 0.767267C14.3822 0.922106 16.8804 2.11151 18.7043 4.09438C20.5286 6.0777 21.5383 8.70304 21.5207 11.4282C21.5031 14.1534 20.4595 16.7648 18.6098 18.7233ZM1.57111 11.3616L1.57111 11.3624C1.57388 13.9536 2.5841 16.4408 4.38479 18.2775C6.18597 20.1147 8.63128 21.1508 11.185 21.1537H11.1859C13.0908 21.1537 14.9518 20.5775 16.5333 19.4996C18.1146 18.4219 19.3449 16.8916 20.0708 15.1041C20.7966 13.3167 20.9864 11.3506 20.6165 9.45405C20.2466 7.5574 19.3333 5.81325 17.9898 4.44289C16.6461 3.07236 14.9324 2.13732 13.0645 1.75834C11.1964 1.37934 9.26035 1.57388 7.50162 2.31694C5.74307 3.05992 4.24243 4.31715 3.18774 5.92718C2.13315 7.53705 1.57111 9.42816 1.57111 11.3616Z" fill="white" stroke="white" stroke-width="1.5"/>
</svg>
